P2
# Created by GIMP version 2.10.14 PNM plug-in
114 84
255
219
219
219
219
219
219
219
219
219
219
219
219
219
219
219
219
219
219
219
219
219
219
219
219
219
219
219
219
219
219
219
219
219
219
219
219
219
219
219
219
219
219
219
219
219
219
219
219
219
219
219
219
219
219
219
219
219
219
219
219
219
219
219
219
219
219
219
219
219
219
219
219
219
219
219
219
219
219
219
219
219
219
219
219
219
219
219
219
219
219
219
219
219
219
219
219
219
219
219
219
219
219
219
219
219
219
219
219
219
219
219
219
219
219
219
219
219
219
219
219
219
219
219
219
219
219
219
219
219
219
219
219
219
219
219
219
219
219
219
219
219
219
219
219
219
219
219
219
219
219
219
219
219
219
219
219
219
219
219
219
219
219
219
219
219
219
219
219
219
219
219
219
219
219
219
219
219
219
219
219
219
219
219
219
219
219
219
219
219
219
219
219
219
219
219
219
219
219
219
219
219
219
219
219
219
219
219
219
219
219
219
219
219
219
219
219
219
219
219
219
219
219
219
219
219
219
219
219
219
219
219
219
219
219
219
219
219
219
219
219
219
219
219
219
219
219
219
219
219
219
219
219
219
219
219
219
219
219
219
219
219
219
219
219
219
219
219
219
219
219
219
219
219
219
219
219
219
219
219
219
219
219
219
219
219
219
219
219
219
219
219
219
219
219
219
219
219
219
219
219
219
219
219
219
219
219
219
219
219
219
219
219
219
219
219
219
219
219
219
219
219
219
219
219
219
219
219
219
219
219
219
219
219
219
219
219
219
219
219
219
219
219
219
219
219
219
219
219
219
219
219
219
219
219
219
219
219
219
219
219
219
219
219
219
219
219
219
219
219
219
219
219
219
219
219
219
219
219
219
219
219
219
219
219
219
219
219
219
219
219
219
219
219
219
219
219
219
219
219
219
219
219
219
219
219
219
219
219
219
219
219
219
219
219
219
219
219
219
219
219
219
219
219
219
219
219
219
219
219
219
219
219
219
219
219
219
219
219
219
219
219
219
219
219
219
219
219
219
219
219
219
219
219
219
219
219
219
219
219
219
219
219
219
219
219
219
219
219
219
219
219
219
219
219
219
219
219
219
219
219
219
219
219
219
219
219
219
219
219
219
219
219
219
219
219
219
219
219
219
219
219
219
219
219
219
219
219
219
219
219
219
219
219
219
219
219
219
219
219
219
219
219
219
219
219
219
219
219
219
219
219
219
219
219
219
219
219
219
219
219
219
219
219
219
219
219
219
219
219
219
219
219
219
219
219
219
219
219
219
219
219
219
219
219
219
219
219
219
219
219
219
219
219
219
219
219
219
219
219
219
219
219
219
219
219
219
219
219
219
219
219
219
219
219
219
219
219
219
219
219
219
219
219
219
219
219
219
219
219
219
219
219
219
219
219
219
219
219
219
219
219
219
219
219
219
219
219
219
219
219
219
219
219
219
219
219
219
219
219
219
219
219
219
219
219
219
219
219
219
219
219
219
219
219
219
219
219
219
219
219
219
219
219
219
219
219
219
219
219
219
219
219
219
219
219
219
219
219
219
219
219
219
219
219
219
219
219
219
219
219
219
219
219
219
219
219
219
219
219
219
219
219
219
219
219
219
219
219
219
219
219
219
219
219
219
219
219
219
219
219
219
219
219
219
219
219
219
219
219
219
219
219
219
219
219
219
219
219
219
219
219
219
219
219
219
219
219
219
219
219
219
219
219
219
219
219
219
219
219
219
219
219
219
219
219
219
219
219
219
219
219
219
219
219
219
219
219
219
219
219
219
219
219
219
219
219
219
219
219
219
219
219
219
219
219
219
219
219
219
219
219
219
219
219
219
219
219
219
219
219
219
219
219
219
219
219
219
219
219
219
219
219
219
219
219
219
219
219
219
219
219
219
219
219
219
219
219
219
219
219
219
219
219
219
219
219
219
219
219
219
219
219
219
219
219
219
219
219
219
219
219
219
219
219
219
219
219
219
219
219
219
219
219
219
219
219
219
219
219
219
219
219
219
219
219
219
219
219
219
219
219
219
219
219
219
219
219
219
219
219
219
219
219
219
219
219
219
219
219
219
219
219
219
219
219
219
219
219
219
219
219
219
219
219
219
219
219
219
219
219
219
219
219
219
219
219
219
219
219
219
219
219
219
219
219
219
219
219
219
219
219
219
219
219
219
219
219
219
219
219
219
219
219
219
219
219
219
219
219
219
219
219
219
219
219
219
219
219
219
219
219
219
219
219
219
219
219
219
219
219
219
219
219
219
219
219
219
219
219
219
219
219
219
219
219
219
219
219
219
219
219
219
219
219
219
219
219
219
219
219
219
219
219
219
219
219
219
219
219
219
219
219
219
219
219
219
219
219
219
219
219
219
219
219
219
219
219
219
219
219
219
219
219
219
219
219
219
219
219
219
219
219
219
219
219
219
219
219
219
219
219
219
219
219
219
219
219
219
219
219
219
219
219
219
219
219
219
219
219
219
219
219
219
219
219
219
219
219
219
219
219
219
219
219
219
219
219
219
219
219
219
219
219
219
219
219
219
219
219
219
219
219
219
219
219
219
219
219
219
219
219
219
219
219
219
219
219
219
219
219
219
219
219
219
219
219
219
219
219
219
219
219
219
219
219
219
219
219
219
219
219
219
219
219
219
219
219
219
219
219
219
219
219
219
219
219
219
219
219
219
219
219
219
219
219
219
219
219
219
219
219
219
219
219
219
219
219
219
219
219
219
219
219
219
219
219
219
219
219
219
219
219
219
219
219
219
219
219
219
219
219
219
219
219
219
219
219
219
219
219
219
219
219
219
219
219
219
219
219
219
219
219
219
219
219
219
219
219
219
219
219
219
219
219
219
219
219
219
219
219
219
219
219
219
219
219
219
219
219
219
219
219
219
219
219
219
219
219
219
219
219
219
219
219
219
219
219
219
219
219
219
219
219
219
219
219
219
219
219
219
219
219
219
219
219
219
219
219
219
219
219
219
219
219
219
219
219
219
219
219
219
219
219
219
219
219
219
219
219
219
219
219
219
219
219
219
219
219
219
219
219
219
219
219
219
219
219
219
219
219
219
219
219
219
219
219
219
219
219
219
219
219
219
219
219
219
219
219
219
219
219
219
219
219
219
219
219
219
219
219
219
219
219
219
219
219
219
219
219
219
219
219
219
219
219
219
219
219
219
219
219
219
219
219
219
219
219
219
219
219
219
219
219
219
219
219
219
219
219
219
219
219
219
219
219
219
219
219
219
219
219
219
219
219
219
219
219
219
219
219
219
219
219
219
219
219
219
219
219
219
219
219
219
219
219
219
219
219
219
219
219
219
219
219
219
219
219
219
219
219
219
219
219
219
219
219
219
219
219
219
219
219
219
219
219
219
219
219
219
219
219
219
219
219
219
219
219
219
219
219
219
219
219
219
219
219
219
219
219
219
219
219
219
219
219
219
219
219
219
219
219
219
219
219
219
219
219
219
219
219
219
219
219
197
161
197
206
217
206
206
217
219
219
219
219
219
219
219
219
219
206
219
219
219
219
219
219
219
190
219
219
219
219
219
219
219
219
219
219
219
219
219
219
219
219
219
219
219
219
219
219
219
219
219
219
219
219
219
219
219
219
219
219
219
219
219
219
219
219
219
219
219
219
219
219
219
219
219
219
219
219
219
219
219
219
219
219
219
219
219
219
219
219
219
219
219
219
219
219
219
219
219
219
219
219
219
219
219
219
219
219
219
173
110
87
97
87
63
63
56
58
62
59
59
63
68
85
131
173
217
219
219
219
191
71
75
131
211
219
219
219
71
0
149
219
219
219
219
219
219
219
219
219
219
219
219
219
219
219
219
219
219
219
219
219
219
219
219
219
219
219
219
219
219
219
219
219
219
219
219
219
219
219
219
219
219
219
219
219
219
219
219
219
219
219
219
219
219
219
219
219
219
219
219
219
219
219
219
219
219
219
219
219
219
219
219
219
219
219
219
219
152
179
188
118
85
59
60
58
58
58
58
58
56
56
58
58
58
58
58
58
60
59
63
79
99
131
68
58
58
60
66
134
219
122
116
0
116
219
219
219
219
219
219
219
219
219
219
219
219
219
219
219
219
219
219
219
219
219
219
219
219
219
219
219
219
219
219
219
219
219
219
219
219
219
219
219
219
219
219
219
219
219
219
219
219
219
219
219
219
219
219
219
219
192
142
219
219
219
219
219
219
219
219
219
219
219
219
219
219
219
219
219
173
179
68
59
58
58
58
58
56
56
56
56
56
56
56
56
56
56
56
56
56
56
56
56
58
58
58
59
58
56
56
56
58
58
120
65
163
0
134
219
219
219
219
219
219
219
219
219
219
219
219
219
219
219
219
219
219
219
219
219
219
219
219
219
219
219
219
219
219
219
219
219
219
219
219
219
219
219
219
219
219
219
219
219
219
219
219
219
219
219
219
219
219
219
219
83
145
219
219
219
91
203
219
219
219
219
219
219
219
219
219
219
219
197
72
59
56
56
56
56
56
56
56
56
56
56
56
56
56
56
56
56
56
56
56
56
56
56
56
56
56
56
56
56
56
56
56
56
60
58
58
16
103
209
219
219
219
219
219
219
219
219
219
219
219
219
219
219
219
219
219
219
219
219
219
219
219
219
219
219
219
219
219
219
219
219
219
219
219
219
219
219
219
219
219
219
219
219
219
219
219
219
219
219
219
219
219
219
219
50
219
219
219
87
27
219
219
219
219
219
219
219
219
209
198
169
106
60
58
56
56
56
56
56
56
56
56
56
56
56
56
56
56
56
56
56
56
56
56
56
56
56
56
56
56
56
56
56
56
56
56
56
56
56
58
60
143
219
219
219
219
219
219
219
219
219
219
219
219
219
219
219
219
219
219
219
219
219
219
219
219
219
219
219
219
219
219
219
219
219
219
219
219
219
219
219
219
219
219
219
219
219
219
219
219
219
219
219
219
219
219
219
155
106
219
219
122
4
59
179
157
134
50
27
91
97
91
44
46
58
59
58
56
56
56
56
56
56
56
56
56
56
56
56
56
56
56
56
56
56
56
56
56
56
56
56
56
56
56
56
56
56
56
56
56
56
56
56
56
58
71
219
219
219
219
219
219
219
219
219
219
219
219
219
219
219
219
219
219
219
219
219
219
219
219
219
219
219
219
219
219
219
219
219
219
219
219
219
219
219
219
219
219
219
219
219
219
219
219
219
219
219
219
219
219
142
21
55
97
35
0
12
21
103
64
0
0
149
203
71
58
65
58
56
56
56
56
56
56
56
56
56
56
56
56
56
56
56
56
56
56
56
56
56
56
56
56
56
56
56
56
56
56
56
56
56
56
56
56
56
56
56
56
56
58
106
206
219
219
219
219
219
219
219
219
219
219
219
219
219
219
219
219
219
219
219
219
219
219
219
219
219
219
219
219
219
219
219
219
219
219
219
219
219
219
219
219
219
219
219
219
219
219
219
219
219
219
219
219
0
4
213
155
27
205
87
142
171
12
155
76
83
36
51
59
58
56
56
56
56
56
56
56
56
56
56
56
56
56
56
56
56
56
56
56
56
56
56
56
56
56
56
56
56
56
56
56
56
56
56
56
56
56
56
56
56
56
56
56
59
71
211
219
219
219
219
219
219
219
219
219
219
219
219
219
219
219
219
219
219
219
219
219
219
219
219
219
219
219
219
219
219
219
219
219
219
219
219
219
219
219
219
219
219
219
219
219
219
219
219
219
219
219
59
59
219
55
205
219
68
16
0
174
219
80
28
58
58
56
56
56
56
56
56
56
56
56
56
56
56
56
56
56
56
58
58
56
56
56
56
56
56
56
56
56
56
56
56
56
56
56
56
56
56
56
56
56
56
56
56
56
56
56
58
62
197
219
219
219
219
219
219
219
219
219
219
219
219
219
219
219
219
219
219
219
219
219
219
219
219
219
219
219
219
219
219
219
219
219
219
219
219
219
219
219
219
219
219
219
219
219
219
219
219
219
219
219
100
87
68
167
219
219
131
27
190
219
191
65
60
58
56
56
56
56
56
56
56
56
56
56
56
56
56
56
58
60
59
71
82
59
56
56
56
56
56
56
56
56
56
56
56
56
56
56
56
56
56
56
56
56
56
56
56
56
56
56
56
60
99
219
219
219
219
219
219
219
219
219
219
219
219
219
219
219
219
219
219
219
219
219
219
219
219
219
219
219
219
219
219
219
219
219
219
219
219
219
219
219
219
219
219
219
219
219
219
219
219
219
219
219
116
0
111
219
219
219
219
219
219
217
77
58
56
56
56
56
56
56
56
56
56
56
56
56
56
58
60
58
87
139
183
161
87
59
56
56
56
56
56
56
56
56
56
56
56
58
58
58
56
56
56
56
56
56
56
56
56
56
56
56
56
56
59
168
219
219
219
219
219
199
219
219
219
219
219
219
219
219
219
219
219
219
219
219
219
219
219
219
219
219
219
219
219
219
219
219
219
219
219
219
219
219
219
219
219
219
219
219
219
219
219
219
219
219
111
21
219
219
219
219
219
219
147
93
58
56
56
56
56
56
56
56
56
56
56
56
56
56
58
71
124
191
219
219
156
62
58
56
56
56
56
56
56
56
56
56
56
56
58
60
40
46
58
58
58
58
58
56
58
58
56
56
56
56
56
56
58
58
97
124
106
71
75
65
93
213
219
219
219
219
219
219
219
219
219
219
219
219
219
219
219
219
219
219
219
219
219
219
219
219
219
219
219
219
219
219
219
219
219
219
219
219
219
219
219
219
219
219
100
152
219
219
219
219
219
219
70
63
56
56
56
56
56
56
56
56
56
56
56
56
58
59
114
219
219
219
219
139
58
58
56
56
56
56
56
56
56
56
58
59
60
60
40
0
0
37
152
131
87
62
63
60
56
63
58
56
56
56
56
56
56
56
58
60
59
58
58
58
63
114
219
219
219
219
219
219
219
219
219
219
219
219
219
219
219
219
219
219
219
219
219
219
219
219
219
219
219
219
219
219
219
219
219
219
219
219
219
219
219
219
219
219
90
157
219
219
219
219
219
152
63
56
56
56
56
56
56
56
56
56
56
56
58
56
68
134
219
219
219
219
156
60
58
56
56
56
56
56
56
56
58
60
46
28
21
0
0
16
46
161
219
219
139
191
168
118
197
80
56
56
56
56
56
56
56
56
56
56
56
56
56
56
58
89
219
219
219
219
219
219
219
219
219
219
219
219
219
219
219
219
219
219
219
219
219
219
219
219
219
219
219
219
219
219
219
219
219
219
219
219
219
219
219
219
219
219
87
171
219
219
219
219
219
82
58
56
56
56
56
56
56
56
56
56
56
58
70
161
219
219
219
219
219
219
110
60
58
56
56
56
56
56
56
58
43
8
0
0
0
0
39
21
9
219
219
219
217
219
219
219
219
3
51
58
56
56
56
56
56
56
56
56
56
56
56
56
59
91
219
219
219
219
219
219
219
219
219
219
219
219
219
219
219
219
219
219
219
219
219
219
219
219
219
219
219
219
219
219
219
219
219
219
219
219
219
219
219
219
219
219
83
184
219
219
219
219
152
60
56
56
56
56
56
56
56
56
56
56
58
51
94
190
219
219
219
219
219
219
219
103
58
56
56
56
56
56
58
21
0
0
0
9
46
39
0
0
12
219
219
219
219
219
219
219
142
36
70
58
56
56
56
56
56
56
56
56
56
56
56
56
58
168
219
219
219
219
219
219
219
219
219
219
219
219
219
219
219
219
219
219
219
219
219
219
219
219
219
219
219
219
219
219
219
219
219
219
219
219
219
219
219
219
219
219
87
190
219
219
219
219
71
58
56
56
56
56
56
56
56
56
56
58
46
0
0
0
0
21
35
35
35
16
0
0
0
39
58
56
56
60
39
0
0
0
21
51
60
39
5
0
21
219
219
219
219
219
219
219
64
174
211
75
58
56
56
56
56
56
56
56
56
56
56
58
71
219
219
219
219
219
219
219
219
219
219
219
219
219
219
219
219
219
219
219
219
219
219
219
219
219
219
219
219
219
219
219
219
219
219
219
219
219
219
219
219
219
219
219
83
198
219
219
219
156
60
56
56
56
56
56
56
56
56
56
58
54
0
0
0
0
0
0
0
0
0
0
0
0
0
0
16
58
56
39
0
0
28
43
28
0
0
0
0
0
12
219
219
219
219
219
219
219
44
219
219
99
59
56
56
56
56
56
56
56
56
56
56
58
91
219
219
219
219
219
219
219
219
219
219
219
219
219
219
219
219
219
219
219
219
219
219
219
219
219
219
219
219
219
219
219
219
219
219
219
219
219
219
219
219
219
219
219
87
203
219
219
219
94
58
56
56
56
56
56
56
56
56
56
58
0
0
0
44
91
134
203
209
190
4
0
0
179
174
78
94
77
87
44
21
58
63
58
43
9
0
0
0
0
0
209
219
219
219
219
219
167
71
219
219
82
58
56
56
56
56
56
56
56
56
56
56
59
110
219
219
219
219
219
219
219
219
219
219
219
219
219
219
219
219
219
219
219
219
219
219
219
219
219
219
219
219
219
219
219
219
219
219
219
219
219
219
219
219
219
219
219
90
203
219
219
203
65
58
56
56
56
56
56
56
56
56
58
70
126
179
219
219
219
219
219
219
219
39
0
21
219
161
191
173
85
66
70
60
82
156
82
110
149
71
16
0
0
0
134
219
219
219
219
219
100
131
219
219
97
58
56
56
56
56
56
56
56
56
56
56
56
68
168
219
219
219
219
219
219
219
219
219
219
219
219
219
219
219
219
219
219
219
219
219
219
219
219
219
219
219
219
219
219
219
219
219
219
219
219
219
219
219
219
219
219
83
198
219
219
118
60
56
56
56
56
56
56
56
56
56
59
161
219
219
219
219
219
219
219
219
219
64
0
21
152
213
219
131
87
134
120
60
161
118
65
161
219
219
219
192
131
83
55
219
219
219
219
219
55
190
219
173
66
58
56
56
56
56
56
56
56
56
56
56
58
58
191
219
219
219
219
219
219
219
219
219
219
219
219
219
219
219
219
219
219
219
219
219
219
219
219
219
219
219
219
219
219
219
219
219
219
219
219
219
219
219
219
219
219
83
192
219
203
62
58
56
56
56
56
56
56
56
56
58
72
219
219
219
219
219
219
219
219
219
219
91
0
39
168
219
219
219
143
219
118
91
97
63
110
219
219
219
219
219
219
219
219
219
219
219
219
219
44
219
219
213
68
58
56
56
56
56
56
56
56
56
56
58
65
156
219
219
219
219
219
219
219
219
219
219
219
219
219
219
219
219
219
219
219
219
219
219
219
219
219
219
219
219
219
219
219
219
219
219
219
219
219
219
219
219
219
219
219
87
184
219
114
60
56
56
56
56
56
56
56
56
56
60
125
219
219
219
219
219
219
219
219
219
219
126
0
39
219
219
219
199
143
219
134
75
59
71
179
219
219
219
219
219
219
219
219
219
219
219
219
179
59
219
219
219
85
58
56
56
56
56
56
56
56
56
58
60
167
219
219
219
219
219
219
219
219
219
219
219
219
219
219
219
219
219
219
219
219
219
219
219
219
219
219
219
219
219
219
219
219
219
219
219
219
219
219
219
219
219
219
219
219
97
174
211
63
58
56
56
56
56
56
56
56
56
58
59
194
219
219
219
219
219
219
219
219
219
219
145
0
50
219
219
219
213
219
219
131
66
152
219
219
219
219
219
219
167
83
157
219
219
219
219
219
131
100
219
219
213
68
58
56
56
56
56
56
56
56
56
60
143
219
219
219
219
219
219
219
219
219
219
219
219
219
219
219
219
219
219
219
219
219
219
219
219
219
219
219
219
219
219
219
219
219
219
219
219
219
219
219
219
219
219
219
219
219
106
155
118
59
56
56
56
56
56
56
56
56
56
60
114
219
219
219
219
219
219
219
219
219
219
219
167
0
44
219
219
219
219
219
219
219
213
219
219
219
219
219
219
219
64
0
55
219
219
219
219
219
87
145
219
219
125
60
56
56
56
56
56
56
56
56
60
110
219
219
219
219
219
219
219
219
219
219
219
219
219
219
219
219
219
219
219
219
219
219
219
219
219
219
219
219
219
219
219
219
219
219
219
219
219
219
219
219
219
219
219
219
219
219
126
82
65
56
56
56
56
56
56
56
56
56
56
58
65
100
192
219
219
219
219
219
219
219
219
219
184
0
35
219
219
219
219
219
219
219
219
219
219
219
219
219
219
213
0
0
39
219
219
219
219
219
59
184
219
191
63
58
56
56
56
56
56
56
56
58
72
213
219
219
219
219
219
219
219
219
219
219
219
219
219
219
219
219
219
219
219
219
219
219
219
219
219
219
219
219
219
219
219
219
219
219
219
219
219
219
219
219
219
219
219
219
219
219
149
28
60
56
56
56
56
56
56
56
56
56
58
39
0
12
39
219
219
219
219
219
219
219
219
219
205
0
21
219
219
219
219
219
219
219
219
219
219
219
219
219
219
87
0
0
21
219
219
219
219
219
50
215
219
79
58
56
56
56
56
56
56
56
58
58
168
219
219
219
219
219
219
219
219
219
219
219
219
219
219
219
219
219
219
219
219
219
219
219
219
219
219
219
219
219
219
219
219
219
219
219
219
219
219
219
219
219
219
219
219
219
219
219
167
51
58
56
56
56
56
56
56
56
56
56
60
21
0
174
50
219
219
219
219
219
219
219
219
219
209
0
0
219
219
219
219
219
219
219
219
219
219
219
219
219
205
0
0
0
12
219
219
219
219
219
55
219
118
58
56
56
56
56
56
56
56
56
60
131
219
219
219
219
219
219
219
219
219
219
219
219
219
219
219
219
219
219
219
219
219
219
219
219
219
219
219
219
219
219
219
219
219
219
219
219
219
219
219
219
219
219
219
219
219
219
219
219
114
60
56
56
56
56
56
56
56
56
56
58
93
157
4
116
126
219
219
219
219
219
219
219
219
219
214
0
0
198
219
219
219
219
219
219
219
219
219
219
219
219
126
0
0
0
0
12
0
0
71
27
0
131
94
58
56
56
56
56
56
56
56
58
75
219
219
219
219
219
219
219
219
219
219
219
219
219
219
219
219
219
219
219
219
219
219
219
219
219
219
219
219
219
219
219
219
219
219
219
219
219
219
219
219
219
219
219
219
219
219
219
219
213
63
58
56
56
56
56
56
56
56
56
56
58
168
217
0
27
219
219
219
219
219
219
219
219
219
219
203
0
0
171
219
219
219
219
219
219
209
184
157
126
83
35
0
0
0
0
0
0
0
4
50
64
37
43
56
56
56
56
56
56
56
56
58
60
183
219
219
219
219
219
219
219
219
219
219
219
219
219
219
219
219
219
219
219
219
219
219
219
219
219
219
219
219
219
219
219
219
219
219
219
219
219
219
219
219
219
219
219
219
219
219
219
219
167
58
56
56
56
56
56
56
56
56
56
58
82
219
76
0
184
219
219
219
219
219
219
219
219
219
219
152
0
0
149
219
219
219
219
219
90
0
0
0
0
0
21
0
0
0
0
39
152
184
219
219
219
89
60
56
56
56
56
56
56
56
56
59
131
219
219
219
219
219
219
219
219
219
219
219
219
219
219
219
219
219
219
219
219
219
219
219
219
219
219
219
219
219
219
219
219
219
219
219
219
219
219
219
219
219
219
219
219
219
219
219
219
219
85
58
56
56
56
56
56
56
56
56
56
60
114
64
0
161
219
219
219
219
219
219
219
219
219
219
219
122
0
0
111
219
219
219
219
219
209
179
142
111
83
35
4
0
0
0
0
126
219
219
219
219
156
62
58
56
56
56
56
56
56
56
58
65
213
219
219
219
219
219
219
219
219
219
219
219
219
219
219
219
219
219
219
219
219
219
219
219
219
219
219
219
219
219
219
219
219
219
219
219
219
219
219
219
219
219
219
219
219
219
219
219
219
199
62
58
56
56
56
56
56
56
56
56
58
51
0
0
44
219
219
219
219
219
219
219
219
219
219
219
219
68
0
0
68
219
219
219
219
219
219
219
219
219
219
219
0
0
0
0
0
167
219
219
199
112
58
58
56
56
56
56
56
56
56
56
60
125
219
219
219
219
219
219
219
219
219
219
219
219
219
219
219
219
219
219
219
219
219
219
219
219
188
152
219
219
219
219
219
219
219
219
219
219
219
219
219
219
219
219
219
219
219
219
219
219
219
188
66
58
56
56
56
56
56
56
56
56
60
40
90
190
145
219
219
219
219
219
219
219
219
219
219
219
219
12
0
0
16
219
219
219
219
219
219
219
219
219
219
219
4
0
0
0
0
198
219
198
72
60
56
56
56
56
56
56
56
56
56
58
71
213
219
219
219
219
219
219
219
219
219
219
219
219
219
219
219
219
219
219
219
172
87
82
207
199
71
63
110
188
219
219
219
219
219
219
219
219
219
219
219
219
219
219
219
219
219
219
219
219
219
152
63
58
56
56
56
56
56
56
56
58
65
182
219
217
215
219
219
219
219
219
219
219
219
219
219
219
145
0
0
0
0
192
219
219
219
219
219
219
219
219
219
219
12
0
0
0
4
219
183
75
58
56
56
56
56
56
56
56
56
56
58
60
169
219
219
219
219
219
219
219
219
219
219
219
219
219
219
219
219
219
219
219
176
62
60
58
188
219
131
60
59
59
152
219
219
219
219
219
219
219
219
219
219
219
219
219
219
219
219
219
219
219
219
203
62
58
56
56
56
56
56
56
56
59
94
219
219
219
219
219
219
219
219
219
219
219
219
219
219
219
64
0
0
0
0
142
219
219
219
219
219
219
219
219
219
219
44
0
0
44
16
125
60
58
56
56
56
56
56
56
56
56
56
56
60
110
219
219
219
219
219
219
219
219
219
219
219
219
219
219
219
219
219
219
219
219
156
71
58
59
118
79
71
58
56
60
152
219
219
219
219
219
219
219
219
219
219
219
219
219
219
219
219
219
219
219
219
134
60
56
56
56
56
56
56
56
56
59
156
219
219
219
219
219
219
219
219
219
219
219
219
219
219
203
0
0
0
0
0
59
219
219
219
219
219
219
219
219
219
219
134
0
0
91
40
60
58
56
56
56
56
56
56
56
56
56
56
58
85
217
219
219
219
219
219
219
219
219
219
219
219
219
219
219
219
219
219
219
219
213
99
58
66
85
99
71
58
56
59
75
207
219
219
219
219
219
219
219
219
219
219
219
219
219
219
219
219
219
219
219
213
68
58
56
56
56
56
56
56
56
56
59
198
219
219
219
219
219
219
219
219
219
219
219
219
219
219
147
0
0
0
0
0
0
219
219
219
219
219
219
219
219
219
219
205
0
5
60
58
56
56
56
56
56
56
56
56
56
56
56
58
60
176
219
219
219
219
219
219
219
219
219
219
219
219
219
219
219
219
219
219
219
152
131
68
63
89
82
68
65
56
58
66
188
219
219
219
219
219
219
219
219
219
219
219
219
219
219
219
219
219
219
219
219
219
85
58
56
56
56
56
56
56
56
58
77
219
219
219
219
219
219
219
219
219
219
219
219
219
219
219
64
0
0
0
0
0
0
161
219
219
219
219
219
219
219
219
219
173
5
54
58
56
56
56
56
56
56
56
56
56
56
56
56
60
117
219
219
219
219
219
219
219
219
219
219
219
219
219
219
219
219
219
219
219
219
134
62
60
82
139
72
58
58
56
58
68
217
219
219
219
219
219
219
219
219
219
219
219
219
219
219
219
219
219
219
219
219
219
85
58
56
56
56
56
56
56
56
59
106
219
219
219
219
219
219
219
219
219
219
219
219
219
219
213
0
0
0
0
0
0
0
64
219
219
219
219
219
219
219
208
147
68
60
58
56
56
56
56
56
56
56
56
56
56
56
56
58
66
203
219
219
219
219
219
219
219
219
219
219
219
219
219
219
219
219
219
219
199
163
131
124
103
89
143
167
77
60
58
59
114
219
219
219
219
219
219
219
219
219
219
219
219
219
219
219
219
219
219
219
219
219
217
75
58
56
56
56
56
56
56
56
60
139
219
219
219
219
219
219
219
219
219
219
219
219
219
219
100
0
0
0
0
0
0
0
0
192
219
219
219
219
219
159
77
59
58
56
56
56
56
56
56
56
56
56
56
56
56
56
56
60
139
219
219
219
219
219
219
219
219
219
219
219
219
219
219
219
219
219
219
159
131
124
120
125
79
172
219
131
112
94
118
183
217
219
219
219
219
219
219
219
219
219
219
219
219
219
219
219
219
219
219
219
219
219
112
60
56
56
56
56
56
56
56
58
58
188
219
219
219
219
219
219
219
219
219
219
219
219
219
190
0
0
0
0
0
0
0
0
0
68
219
219
219
169
85
58
58
56
56
56
56
56
56
56
56
56
56
56
56
56
56
56
58
68
213
219
219
219
219
219
219
219
219
219
219
219
219
219
219
219
219
163
143
112
87
103
156
211
94
103
139
194
219
219
219
219
219
219
219
219
219
219
219
219
219
219
219
219
219
219
219
219
219
219
219
219
219
219
103
60
56
56
56
56
56
56
56
58
63
203
219
219
219
219
219
219
219
219
219
219
219
219
219
50
0
0
0
12
39
50
29
0
0
0
149
179
97
58
58
56
56
56
56
56
56
56
56
56
56
56
56
56
56
56
56
56
58
152
219
219
219
219
219
219
219
219
219
219
219
219
176
147
194
219
120
82
147
89
60
114
169
219
89
103
198
219
219
219
219
219
219
219
219
219
219
219
219
219
219
219
219
219
219
219
219
219
219
219
219
219
219
211
117
58
56
56
56
58
56
56
56
58
77
219
219
219
219
219
219
219
219
219
219
219
219
219
131
0
27
122
192
219
219
219
219
217
171
50
37
66
60
56
56
56
56
56
56
56
56
56
56
56
56
56
56
56
56
56
56
59
103
219
219
219
219
219
219
219
219
219
219
208
176
128
97
134
163
120
117
79
66
58
97
87
134
125
114
217
219
219
219
219
219
219
219
219
219
219
219
219
219
219
219
219
219
219
219
219
219
219
219
219
219
219
219
219
176
58
56
56
59
68
58
56
56
58
75
219
219
219
219
219
219
219
219
219
219
219
219
190
44
147
219
219
219
219
219
219
219
194
152
82
60
58
56
56
56
56
56
56
56
56
56
56
56
56
56
56
56
56
56
56
56
58
182
219
219
219
219
219
219
219
219
208
134
110
75
99
99
134
89
58
77
58
68
134
112
93
147
188
219
219
219
219
219
219
219
219
219
219
219
219
219
219
219
219
219
219
219
219
219
219
219
219
219
219
219
219
219
219
120
59
56
58
91
156
60
56
56
58
71
217
219
219
219
219
219
219
219
219
219
219
219
190
167
171
134
106
100
116
157
182
114
65
60
58
56
56
56
56
56
56
56
56
56
56
56
58
56
56
56
56
56
56
56
58
58
79
215
219
219
219
219
219
219
207
152
117
163
131
62
63
114
103
62
58
58
89
99
91
156
203
219
219
219
219
219
219
219
219
219
219
219
219
219
219
219
219
219
219
219
219
219
219
219
219
219
219
219
219
219
219
219
176
60
58
56
58
66
97
58
56
56
58
89
219
219
219
219
219
219
219
219
219
215
171
100
50
4
39
68
97
116
122
65
54
60
58
56
56
56
56
56
56
56
56
56
56
58
60
58
65
58
56
56
56
56
56
58
62
65
147
219
219
219
219
219
205
131
114
106
117
99
68
103
66
60
58
56
56
58
58
65
120
139
167
219
219
219
219
219
219
219
219
219
219
219
219
219
219
219
219
219
219
219
219
219
219
219
219
219
219
219
219
219
219
219
219
82
58
56
56
56
58
58
56
56
60
103
219
219
219
219
219
219
219
219
174
12
27
91
68
131
219
219
219
219
152
70
58
56
56
56
56
56
56
56
56
56
56
56
59
62
112
172
117
59
56
56
56
56
58
59
163
108
219
219
219
219
219
182
77
79
112
65
60
89
75
63
58
58
56
56
58
117
89
75
143
219
219
219
219
219
219
219
219
219
219
219
219
219
219
219
219
219
219
219
219
219
219
219
219
219
219
219
219
219
219
219
219
219
194
66
58
56
60
106
167
79
58
56
60
51
219
219
219
219
219
219
219
219
219
184
219
219
100
198
219
219
207
89
60
58
56
56
56
56
56
56
56
56
56
56
58
60
106
194
219
219
75
58
56
56
56
56
58
120
172
114
188
172
203
163
128
75
60
91
89
58
58
58
58
58
59
72
58
60
63
124
159
203
219
219
219
219
219
219
219
219
219
219
219
219
219
219
219
219
219
219
219
219
219
219
219
219
219
219
219
219
219
219
219
219
219
219
219
134
58
56
60
120
208
65
58
56
60
21
103
219
219
219
219
219
219
219
219
219
219
217
90
219
172
125
71
58
56
56
56
56
56
56
56
56
56
56
58
59
58
94
161
157
142
116
51
58
56
56
56
56
58
194
139
82
194
169
120
120
71
91
117
58
58
56
56
56
56
58
68
99
87
94
156
219
219
219
219
219
219
219
219
219
219
219
219
219
219
219
219
219
219
219
219
219
219
219
219
219
219
219
219
219
219
219
219
219
219
219
219
219
219
203
59
58
60
114
131
60
56
56
60
37
29
209
219
219
219
219
219
219
219
219
219
192
91
139
58
60
58
56
56
56
56
56
56
56
56
56
58
59
85
156
184
198
198
214
219
125
58
56
56
56
56
56
58
117
112
71
159
94
66
60
103
124
68
58
56
56
56
56
56
56
58
85
156
159
198
219
219
219
219
219
219
219
219
219
219
219
219
219
219
219
219
219
219
219
219
219
219
219
219
219
219
219
219
219
219
219
219
219
219
219
219
219
219
163
58
56
58
82
103
60
56
56
60
134
71
44
219
219
219
219
219
219
219
219
215
143
43
58
58
56
56
56
56
56
56
56
56
56
58
58
58
114
184
184
171
131
59
131
126
44
54
58
56
56
56
56
56
58
58
58
58
58
58
56
59
58
58
56
56
56
56
56
56
60
79
159
182
219
219
219
219
219
219
219
219
219
219
219
219
219
219
219
219
219
219
219
219
219
219
219
219
219
219
219
219
219
219
219
219
219
219
219
219
219
219
219
219
205
89
58
58
68
143
60
56
56
60
134
217
29
147
219
219
219
219
219
198
131
77
59
58
56
56
56
56
56
56
56
56
56
58
60
60
27
29
87
97
116
111
55
161
171
171
136
58
56
56
56
56
56
56
56
56
56
56
56
56
56
56
56
56
56
56
56
56
56
59
85
169
219
219
219
219
219
219
219
219
219
219
219
219
219
219
219
219
219
219
219
219
219
219
219
219
219
219
219
219
219
219
219
219
219
219
219
219
219
219
219
219
219
219
219
125
59
56
58
176
97
58
56
59
99
219
209
59
100
198
215
190
136
66
60
58
58
56
56
56
56
56
56
56
56
58
60
63
108
188
106
205
219
219
213
76
97
219
219
219
192
58
58
56
56
56
56
56
56
56
56
56
56
56
56
56
56
56
56
56
56
58
58
99
211
219
219
219
219
219
219
219
219
219
219
219
219
219
219
219
219
219
219
219
219
219
219
219
219
219
219
219
219
219
219
219
219
219
219
219
219
219
219
219
219
219
219
219
219
172
58
56
58
108
131
58
56
56
60
152
219
205
34
12
51
21
46
58
56
56
56
56
56
56
56
56
56
58
60
66
124
198
219
142
152
219
219
167
131
145
4
131
152
91
122
152
60
58
56
56
56
56
56
56
56
56
56
56
56
56
56
56
56
58
60
71
167
219
219
219
219
219
219
219
219
219
219
219
219
219
219
219
219
219
219
219
219
219
219
219
219
219
219
219
219
219
219
219
219
219
219
219
219
219
219
219
219
219
219
219
219
219
219
143
59
56
56
58
56
56
56
56
58
59
79
91
65
59
59
58
58
56
56
56
56
56
56
56
56
56
60
71
143
203
215
192
161
50
87
116
76
103
152
157
142
111
122
147
111
90
106
58
58
56
56
56
56
56
56
56
56
56
56
56
56
56
58
58
112
205
219
219
219
219
219
219
219
219
219
219
219
219
219
219
219
219
219
219
219
219
219
219
219
219
219
219
219
219
219
219
219
219
219
219
219
219
219
219
219
219
219
219
219
219
219
219
219
211
85
58
56
56
56
56
56
56
56
58
58
58
56
56
56
56
56
56
56
56
56
56
56
56
58
58
124
167
147
131
131
145
167
174
147
161
192
219
219
219
219
219
219
219
219
55
106
143
58
58
58
56
56
56
56
56
56
56
56
56
58
60
77
169
219
219
219
219
219
219
219
219
219
219
219
219
219
219
219
219
219
219
219
219
219
219
219
219
219
219
219
219
219
219
219
219
219
219
219
219
219
219
219
219
219
219
219
219
219
219
219
219
219
219
159
59
58
56
56
56
56
56
56
56
56
56
56
56
56
56
56
56
56
56
56
56
58
60
68
152
219
209
198
218
219
219
219
219
219
219
219
219
219
219
219
219
219
219
219
219
219
219
131
75
71
60
58
56
56
56
56
56
58
60
66
117
203
219
219
219
219
219
219
219
219
219
219
219
219
219
219
219
219
219
219
219
219
219
219
219
219
219
219
219
219
219
219
219
219
219
219
219
219
219
219
219
219
219
219
219
219
219
219
219
219
219
219
219
215
106
87
59
56
56
56
56
56
56
56
56
56
56
56
56
56
56
56
56
58
59
65
117
198
219
219
219
219
219
219
219
219
219
219
219
219
219
219
219
219
219
219
219
219
219
219
219
219
215
205
143
63
59
58
58
58
60
65
134
203
219
219
219
219
219
219
219
219
219
219
219
219
219
219
219
219
219
219
219
219
219
219
219
219
219
219
219
219
219
219
219
219
219
219
219
219
219
219
219
219
219
219
219
219
219
219
219
219
219
219
219
219
219
219
211
169
65
58
58
56
56
56
56
56
56
56
56
56
56
56
56
58
60
103
58
159
219
219
219
219
219
219
219
219
219
219
219
219
219
219
219
219
219
219
219
219
219
219
219
219
219
219
219
219
219
182
103
72
71
82
106
182
219
219
219
219
219
219
219
219
219
219
219
219
219
219
219
219
219
219
219
219
219
219
219
219
219
219
219
219
219
219
219
219
219
219
219
219
219
219
219
219
219
219
219
219
219
219
219
219
219
219
219
219
219
219
219
219
219
219
159
112
62
58
56
56
56
58
56
56
56
56
58
58
59
85
156
218
126
215
219
219
219
219
219
219
219
219
219
219
219
219
219
219
219
219
219
219
219
219
219
219
219
219
219
219
219
219
219
219
219
211
211
219
219
219
219
219
219
219
219
219
219
219
219
219
219
219
219
219
219
219
219
219
219
219
219
219
219
219
219
219
219
219
219
219
219
219
219
219
219
219
219
219
219
219
219
219
219
219
219
219
219
219
219
219
219
219
219
219
219
219
219
219
219
188
108
63
58
58
62
77
58
58
58
60
63
89
156
215
219
219
219
219
219
219
219
219
219
219
219
219
219
219
219
219
219
219
219
219
219
219
219
219
219
219
219
219
219
219
219
219
219
219
219
219
219
219
219
219
219
219
219
219
219
219
219
219
219
219
219
219
219
219
219
219
219
219
219
219
219
219
219
219
219
219
219
219
219
219
219
219
219
219
219
219
219
219
219
219
219
219
219
219
219
219
219
219
219
219
219
219
219
219
219
219
219
219
219
219
203
131
85
59
59
120
58
71
89
131
194
219
219
219
219
219
219
219
219
219
219
219
219
219
219
219
219
219
219
219
219
219
219
219
219
219
219
219
219
219
219
219
219
219
219
219
219
219
219
219
219
219
219
219
219
219
219
219
219
219
219
219
219
219
219
219
219
219
219
219
219
219
219
219
219
219
219
219
219
219
219
219
219
219
219
219
219
219
219
219
219
219
219
219
219
219
219
219
219
219
219
219
219
219
219
219
219
219
219
219
219
219
219
219
219
219
208
188
172
172
136
205
219
219
219
219
219
219
219
219
219
219
219
219
219
219
219
219
219
219
219
219
219
219
219
219
219
219
219
219
219
219
219
219
219
219
219
219
219
219
219
219
219
219
219
219
219
219
219
219
219
219
219
219
219
219
219
219
219
219
219
219
219
219
219
219
219
219
219
219
219
219
219
219
219
219
219
219
219
219
219
219
219
219
219
219
219
219
219
219
219
219
219
219
219
219
219
219
219
219
219
219
219
219
219
219
219
219
219
219
219
219
219
219
219
219
219
219
219
219
219
219
219
219
219
219
219
219
219
219
219
219
219
219
219
219
219
219
219
219
219
219
219
219
219
219
219
219
219
219
219
219
219
219
219
219
219
219
219
219
219
219
219
219
219
219
219
219
219
219
219
219
219
219
219
219
219
219
219
219
219
219
219
219
219
219
219
219
219
219
219
219
219
219
219
219
219
219
219
219
219
219
219
219
219
219
219
219
219
219
219
219
219
219
219
219
219
219
219
219
219
219
219
219
219
219
219
219
219
219
219
219
219
219
219
219
219
219
219
219
219
219
219
219
219
219
219
219
219
219
219
219
219
219
219
219
219
219
219
219
219
219
219
219
219
219
219
219
219
219
219
219
219
219
219
219
219
219
219
219
219
219
219
219
219
219
219
219
219
219
219
219
219
219
219
219
219
219
219
219
219
219
219
219
219
219
219
219
219
219
219
219
219
219
219
219
219
219
219
219
219
219
219
219
219
219
219
219
219
219
219
219
219
219
219
219
219
219
219
219
219
219
219
219
219
219
219
219
219
219
219
219
219
219
219
219
219
219
219
219
219
219
219
219
219
219
219
219
219
219
219
219
219
219
219
219
219
219
219
219
219
219
219
219
219
219
219
219
219
219
219
219
219
219
219
219
219
219
219
219
219
219
219
219
219
219
219
219
219
219
219
219
219
219
219
219
219
219
219
219
219
219
219
219
219
219
219
219
219
219
219
219
219
219
219
219
219
219
219
219
219
219
219
219
219
219
219
219
219
219
219
219
219
219
219
219
219
219
219
219
219
219
219
219
219
219
219
219
219
219
219
219
219
219
219
219
219
219
219
219
219
219
219
219
219
219
219
219
219
219
219
219
219
219
219
219
219
219
219
219
219
219
219
219
219
219
219
219
219
219
219
219
219
219
219
219
219
219
219
219
219
219
219
219
219
219
219
219
219
219
219
219
219
219
219
219
219
219
219
219
219
219
218
218
219
218
219
219
219
219
219
219
219
219
219
219
219
219
219
219
219
219
219
219
219
219
219
219
219
219
219
219
218
219
218
218
219
218
219
219
219
219
219
219
218
219
218
218
219
218
219
219
219
219
219
219
219
219
219
219
219
219
219
219
218
219
218
218
219
218
219
219
219
219
219
219
219
219
219
219
219
219
219
219
219
219
219
219
219
219
219
219
219
219
219
219
218
219
218
218
219
218
219
219
219
219
219
219
218
219
218
218
219
218
219
219
218
218
219
218
219
219
219
219
219
219
218
219
218
218
218
218
218
218
218
218
218
218
218
218
218
218
218
218
218
218
219
218
219
219
218
219
218
218
218
218
218
218
218
218
218
218
218
218
218
218
218
218
218
218
218
218
218
218
218
218
218
218
218
218
218
218
219
218
219
219
219
219
219
219
218
219
218
218
218
218
218
218
218
218
218
218
218
218
218
218
218
218
218
218
219
218
219
219
218
219
218
218
218
218
218
218
218
218
218
218
218
218
218
218
